<svg fill="#ffffff" xmlns="http://www.w3.org/2000/svg"  viewBox="0 0 32 32" width="32px" height="32px"><path d="M 16 4 C 12.144531 4 9 7.144531 9 11 C 9 13.394531 10.21875 15.519531 12.0625 16.78125 C 8.484375 18.304688 6 21.859375 6 26 L 8 26 C 8 21.535156 11.535156 18 16 18 C 20.464844 18 24 21.535156 24 26 L 26 26 C 26 21.859375 23.515625 18.304688 19.9375 16.78125 C 21.78125 15.519531 23 13.394531 23 11 C 23 7.144531 19.855469 4 16 4 Z M 16 6 C 18.773438 6 21 8.226563 21 11 C 21 13.773438 18.773438 16 16 16 C 13.226563 16 11 13.773438 11 11 C 11 8.226563 13.226563 6 16 6 Z"/></svg>